<svg xmlns="http://www.w3.org/2000/svg" xmlns:xlink="http://www.w3.org/1999/xlink" width="112" height="25" viewBox="0 0 112 25">
    <defs>
        <path id="a" d="M0 0h22.84v25H0z"/>
    </defs>
    <g fill="none" fill-rule="evenodd">
        <path fill="#777" d="M26.01 8.34h2.962l1.395 7.621L32.42 8.34h2.606l2.439 7.755 1.426-7.755h2.815L39.3 19.744h-3.25l-2.161-7.115-2.211 7.115h-3.41L26.01 8.34zm21.902 9.345c1.842 0 2.574-1.765 2.574-3.643 0-1.98-.732-3.645-2.574-3.645-1.842 0-2.575 1.666-2.575 3.644 0 1.879.733 3.643 2.575 3.643zm0-9.543c3.748 0 5.704 2.24 5.704 5.9 0 3.627-1.988 5.897-5.704 5.897-3.715 0-5.703-2.27-5.703-5.898 0-3.66 1.955-5.899 5.703-5.899zm7.399.196h3.031v9.15h4.693v2.254h-7.724V8.338zm8.98 0h7.607v2.157H67.32v2.5h4.382v2.156H67.32v4.59h-3.03V8.339zm12.222 4.74h.8c.977 0 2.216-.034 2.216-1.325 0-1.061-1.06-1.258-2.216-1.258h-.8v2.583zm-3.03-4.74h5.41c2.02 0 3.667.914 3.667 2.876 0 1.52-.717 2.533-2.184 2.876v.033c.977.262 1.043 1.128 1.613 2.517l1.107 3.102h-3.16l-.651-2.057c-.62-1.96-1.01-2.452-2.135-2.452h-.637v4.509h-3.03V8.338zm16.064 2.354h-.032l-1.467 4.46h2.85l-1.351-4.46zm-1.86-2.354h3.718l4.383 11.404h-3.325l-.847-2.433h-4.269l-.896 2.433H83.37l4.318-11.404zm18.608.001h3.408l2.258 11.404v.001h-2.963l-1.392-7.65-2.057 7.65h-2.606l-2.429-7.753-1.436 7.753h-2.816l2.41-11.405h3.25l2.16 7.122 2.213-7.122z"/>
        <g>
            <mask id="b" fill="#fff">
                <use xlink:href="#a"/>
            </mask>
            <path fill="#D10" d="M17.493 16.571l-2.056-.678 2.458-.754 2.302.82-2.704.612zm-3.283 3.02l.071-3.05 2.752.908.344 3.59-3.167-1.449zm-8.405-2.143l2.752-.906.07 3.048-3.167 1.447.345-3.589zm-3.162-1.492l2.3-.817 2.457.754-2.056.677-2.701-.614zm1.57-3.039l1.94-.75-1.508 2.04-2.21.785 1.778-2.075zm-2.434-3.68l3.384-.766 1.626 2.404-2.712 1.047-2.298-2.684zm11.384-4.183L11.42 7.372l-1.743-2.32 1.742-3.105 1.744 3.107zM21.06 9.24l-2.297 2.684-2.713-1.05 1.627-2.402 3.383.768zm-8.878 3.489l2.96-1.038 1.97 2.664-3.103.953-1.827-2.58zm-2.658 4.79l1.424 2.163v2.531L9.575 19.77l-.051-2.25zm1.132-4.79l-1.826 2.58-3.104-.954 1.97-2.664 2.96 1.038zm-4.83-4.984l-.274-2.847 1.391 1.955.07 2.648-1.188-1.756zm6.065.771l3.047-1.128-.09 3.37-2.957 1.037V8.516zm-3.9 2.241L7.9 7.388l3.047 1.128v3.279L7.99 10.757zm3.428 7.905l-1.827-2.776 1.827-2.58 1.827 2.58-1.827 2.776zm5.596-10.916l-1.19 1.756.07-2.648 1.394-1.956-.274 2.848zM14.03 5.494l2.46-1.125-1.355 1.904-2.343.867 1.238-1.646zM10.047 7.14l-2.343-.867-1.356-1.906 2.461 1.126 1.238 1.647zm3.215 12.63l-1.371 2.443v-2.531l1.423-2.162-.052 2.25zm7.14-4.777l-2.209-.786-1.506-2.038 1.94.75 1.775 2.074zm-.87-2.492L22.84 8.64l-4.856-1.102.495-5.149-4.55 2.08L11.418 0 8.913 4.468l-4.55-2.081.494 5.148L0 8.636l3.305 3.863L0 16.362l4.855 1.102-.494 5.148 4.55-2.08L11.42 25l2.507-4.467 4.55 2.08-.494-5.148 4.857-1.1-3.307-3.864z" mask="url(#b)"/>
        </g>
    </g>
</svg>
